<svg width="57" height="60" viewBox="0 0 57 60" fill="none" xmlns="http://www.w3.org/2000/svg">
<path d="M55.7457 13.2388L28.5034 0.0873633C28.2619 -0.0291211 27.9806 -0.0291211 27.7392 0.0873633L0.496758 13.2388C0.193008 13.3854 0 13.6931 0 14.0303V45.9697C0 46.3069 0.193008 46.6146 0.496758 46.7612L27.7391 59.9126C27.8598 59.9709 27.9906 60.0001 28.1213 60.0001C28.2519 60.0001 28.3826 59.9709 28.5034 59.9126L55.7457 46.7612C56.0495 46.6146 56.2425 46.3069 56.2425 45.9697V14.0304C56.2425 13.6929 56.0494 13.3856 55.7457 13.2388ZM28.1213 1.8549L53.342 14.0303L46.031 17.5598C45.9847 17.5245 45.9359 17.4919 45.8822 17.466L20.8328 5.37346L28.1213 1.8549ZM18.8479 6.36721L44.0319 18.5249L38.8739 21.0151L13.7003 8.86225L18.8479 6.36721ZM44.6211 20.1923V29.3969L39.8032 31.7228V22.5182L44.6211 20.1923ZM54.4847 45.4182L29.0002 57.7208V27.7334L35.079 24.7988C35.5161 24.5878 35.6994 24.0624 35.4884 23.6252C35.2773 23.1882 34.752 23.0047 34.3147 23.2158L28.1213 26.2059L25.6842 25.0293C25.247 24.818 24.7216 25.0015 24.5106 25.4387C24.2995 25.8758 24.4828 26.4012 24.9199 26.6123L27.2423 27.7334V57.7208L1.75781 45.4179V15.4306L21.1641 24.7992C21.2872 24.8587 21.4174 24.8868 21.5455 24.8868C21.8722 24.8868 22.1861 24.7038 22.3376 24.3898C22.5486 23.9527 22.3654 23.4272 21.9282 23.2162L2.90051 14.0303L11.6316 9.81533L38.0332 22.561C38.0371 22.5664 38.0414 22.5712 38.0454 22.5765V33.1232C38.0454 33.4257 38.2009 33.7068 38.4571 33.8677C38.5993 33.957 38.7616 34.0021 38.9244 34.0021C39.0547 34.0021 39.1854 33.9732 39.3064 33.9147L45.8822 30.7402C46.1859 30.5936 46.3789 30.2861 46.3789 29.9487V19.3438L54.4847 15.4307V45.4182Z" fill="white"/>
<path d="M55.7457 13.2388L28.5034 0.0873633C28.2619 -0.0291211 27.9806 -0.0291211 27.7392 0.0873633L0.496758 13.2388C0.193008 13.3854 0 13.6931 0 14.0303V45.9697C0 46.3069 0.193008 46.6146 0.496758 46.7612L27.7391 59.9126C27.8598 59.9709 27.9906 60.0001 28.1213 60.0001C28.2519 60.0001 28.3826 59.9709 28.5034 59.9126L55.7457 46.7612C56.0495 46.6146 56.2425 46.3069 56.2425 45.9697V14.0304C56.2425 13.6929 56.0494 13.3856 55.7457 13.2388ZM28.1213 1.8549L53.342 14.0303L46.031 17.5598C45.9847 17.5245 45.9359 17.4919 45.8822 17.466L20.8328 5.37346L28.1213 1.8549ZM18.8479 6.36721L44.0319 18.5249L38.8739 21.0151L13.7003 8.86225L18.8479 6.36721ZM44.6211 20.1923V29.3969L39.8032 31.7228V22.5182L44.6211 20.1923ZM54.4847 45.4182L29.0002 57.7208V27.7334L35.079 24.7988C35.5161 24.5878 35.6994 24.0624 35.4884 23.6252C35.2773 23.1882 34.752 23.0047 34.3147 23.2158L28.1213 26.2059L25.6842 25.0293C25.247 24.818 24.7216 25.0015 24.5106 25.4387C24.2995 25.8758 24.4828 26.4012 24.9199 26.6123L27.2423 27.7334V57.7208L1.75781 45.4179V15.4306L21.1641 24.7992C21.2872 24.8587 21.4174 24.8868 21.5455 24.8868C21.8722 24.8868 22.1861 24.7038 22.3376 24.3898C22.5486 23.9527 22.3654 23.4272 21.9282 23.2162L2.90051 14.0303L11.6316 9.81533L38.0332 22.561C38.0371 22.5664 38.0414 22.5712 38.0454 22.5765V33.1232C38.0454 33.4257 38.2009 33.7068 38.4571 33.8677C38.5993 33.957 38.7616 34.0021 38.9244 34.0021C39.0547 34.0021 39.1854 33.9732 39.3064 33.9147L45.8822 30.7402C46.1859 30.5936 46.3789 30.2861 46.3789 29.9487V19.3438L54.4847 15.4307V45.4182Z" fill="white"/>
</svg>
