<svg width="19" height="18" viewBox="0 0 19 18" fill="none" xmlns="http://www.w3.org/2000/svg">
<path d="M16.4381 6.81774C14.1227 5.58081 12.4308 3.05123 11.9508 0C11.4793 3.05123 9.79441 5.58081 7.48241 6.81774C7.03246 7.05848 5.9121 7.4287 5.9121 7.4287C5.9121 7.4287 7.03348 7.79891 7.48409 8.03966C9.79966 9.27658 11.4913 11.8064 11.9713 14.8574C12.4429 11.8062 14.1278 9.27658 16.4398 8.03966C16.8897 7.79891 18.0101 7.4287 18.0101 7.4287C18.0101 7.4287 16.8887 7.05848 16.4381 6.81774Z" fill="#05990B"/>
<path d="M6.89222 13.2336C5.51946 12.5003 4.51645 11.0004 4.23191 9.19159C3.95235 11.0006 2.95349 12.5003 1.58274 13.2336C1.31601 13.3762 0.651825 13.5957 0.651825 13.5957C0.651825 13.5957 1.31662 13.8152 1.58374 13.9579C2.95651 14.6912 3.95951 16.191 4.24405 18C4.52361 16.191 5.52248 14.6913 6.89322 13.9579C7.15995 13.8152 7.82414 13.5957 7.82414 13.5957C7.82414 13.5957 7.15935 13.3762 6.89222 13.2336Z" fill="#05990B"/>
<path d="M17.7731 13.5956C17.7737 14.0248 17.4909 14.3728 17.1414 14.3728C16.7918 14.3728 16.508 14.0249 16.5074 13.5956C16.5068 13.1663 16.7896 12.8184 17.1392 12.8184C17.4888 12.8184 17.7725 13.1663 17.7731 13.5956Z" fill="#05990B"/>
<path d="M6.13569 2.90745C6.13628 3.33677 5.85333 3.68466 5.5039 3.68466C5.15431 3.68466 4.87056 3.33677 4.86997 2.90745C4.86938 2.47832 5.15217 2.13025 5.50176 2.13025C5.85119 2.13025 6.1351 2.47813 6.13569 2.90745Z" fill="#05990B"/>
<path d="M0.644281 8.20597C0.9938 8.20597 1.27666 7.858 1.27607 7.42876C1.27548 6.99952 0.991656 6.65155 0.642137 6.65155C0.292618 6.65155 0.00975717 6.99952 0.0103491 7.42876C0.0109409 7.858 0.294762 8.20597 0.644281 8.20597Z" fill="#05990B"/>
</svg>
