<svg width="640" height="557" viewBox="0 0 640 557" fill="none" xmlns="http://www.w3.org/2000/svg">
<path d="M244 2C231.167 2 198.568 2 170.842 2C138.497 2 88.0162 2 88.0162 2C40.5108 2 2 40.5574 2 88.1202C2 135.683 40.5108 174.24 88.0162 174.24C88.0162 174.24 138.497 174.24 170.842 174.24H244" stroke="white" stroke-width="3" stroke-miterlimit="10"/>
<path d="M244 346C231.167 346 198.568 346 170.842 346C138.497 346 88.0162 346 88.0162 346C40.5108 346 2 384.557 2 432.12C2 479.683 40.5108 518.24 88.0162 518.24C88.0162 518.24 138.497 518.24 170.842 518.24H244" stroke="white" stroke-width="3" stroke-miterlimit="10"/>
<path d="M469.887 352.481H552.046C599.551 352.481 638.062 313.923 638.062 266.361C638.062 218.798 599.551 180.24 552.046 180.24H469.887" stroke="white" stroke-width="3" stroke-miterlimit="10"/>
<path d="M378.608 348.129C408.007 357.686 412.54 375.003 388.732 386.805C364.926 398.609 321.793 400.428 292.393 390.871C262.993 381.313 258.46 363.996 282.267 352.194C306.075 340.392 349.206 338.571 378.606 348.129H378.608Z" fill="url(#paint0_radial_2252_1897)"/>
<path opacity="0.2" d="M335.464 371C321.402 371 308.137 369.099 297.101 365.502C281.593 360.448 272.691 352.644 272.035 343.526C271.713 339.037 273.329 330.432 287.778 323.252C299.611 317.373 317.017 314 335.534 314C349.597 314 362.863 315.901 373.899 319.498C389.407 324.552 398.307 332.356 398.965 341.474C399.287 345.963 397.671 354.568 383.22 361.748C371.387 367.627 353.982 371 335.464 371Z" fill="#05990B"/>
<path d="M373.129 324.237C398.452 332.404 402.356 347.202 381.849 357.288C361.343 367.374 324.192 368.93 298.871 360.763C273.549 352.596 269.645 337.798 290.149 327.712C310.655 317.626 347.806 316.07 373.129 324.237Z" fill="#05990B"/>
<path d="M365.577 328.123C385.748 334.552 388.86 346.202 372.525 354.142C356.19 362.082 326.596 363.306 306.423 356.877C286.251 350.448 283.141 338.798 299.475 330.858C315.81 322.918 345.404 321.694 365.577 328.123Z" fill="url(#paint1_radial_2252_1897)"/>
<path d="M365.577 328.123C385.748 334.552 388.86 346.202 372.525 354.142C356.19 362.082 326.596 363.306 306.423 356.877C286.251 350.448 283.141 338.798 299.475 330.858C315.81 322.918 345.404 321.694 365.577 328.123Z" fill="url(#paint2_radial_2252_1897)"/>
<path d="M365.577 328.123C385.748 334.552 388.86 346.202 372.525 354.142C356.19 362.082 326.596 363.306 306.423 356.877C286.251 350.448 283.141 338.798 299.475 330.858C315.81 322.918 345.404 321.694 365.577 328.123Z" fill="url(#paint3_radial_2252_1897)"/>
<path opacity="0.2" d="M335.464 380C321.402 380 308.137 378.132 297.101 374.599C281.593 369.634 272.691 361.966 272.035 353.008C271.713 348.598 273.329 340.144 287.778 333.089C299.611 327.314 317.017 324 335.534 324C349.597 324 362.863 325.868 373.899 329.401C389.407 334.366 398.307 342.034 398.965 350.992C399.287 355.402 397.671 363.856 383.22 370.911C371.387 376.686 353.982 380 335.464 380Z" fill="#05990B"/>
<path d="M378 325.641H369.683C367.634 324.562 365.214 323.565 362.429 322.678C344.401 316.943 317.951 318.035 303.352 325.117C302.998 325.29 302.661 325.465 302.327 325.641H294.072V334.521C293.308 339.65 298.621 344.843 309.559 348.322C327.588 354.057 354.038 352.965 368.637 345.883C374.941 342.826 377.998 339.149 377.992 335.499H378V325.639V325.641Z" fill="#E2EEEB"/>
<path d="M362.431 312.677C380.457 318.412 383.236 328.802 368.639 335.883C354.042 342.965 327.596 344.057 309.569 338.323C291.543 332.588 288.764 322.198 303.361 315.117C317.958 308.035 344.404 306.943 362.431 312.677Z" fill="#F4FFFC"/>
<path d="M336 342C359.196 342 378 334.613 378 325.5C378 316.387 359.196 309 336 309C312.804 309 294 316.387 294 325.5C294 334.613 312.804 342 336 342Z" fill="url(#paint4_radial_2252_1897)"/>
<path d="M378 308.842H369.683C367.634 307.73 365.214 306.704 362.429 305.789C344.401 299.88 317.951 301.006 303.352 308.303C302.998 308.481 302.661 308.66 302.327 308.842H294.072V317.992C293.308 323.276 298.621 328.626 309.559 332.211C327.588 338.12 354.038 336.994 368.637 329.697C374.941 326.548 377.998 322.76 377.992 318.999H378V308.84V308.842Z" fill="#E2EEEB"/>
<path d="M362.431 295.788C380.457 301.697 383.236 312.402 368.639 319.698C354.042 326.994 327.596 328.119 309.569 322.212C291.543 316.303 288.764 305.598 303.361 298.302C317.958 291.006 344.404 289.881 362.431 295.788Z" fill="#F4FFFC"/>
<path opacity="0.25" d="M335.5 318C347.374 318 357 313.971 357 309C357 304.029 347.374 300 335.5 300C323.626 300 314 304.029 314 309C314 313.971 323.626 318 335.5 318Z" fill="url(#paint5_radial_2252_1897)"/>
<path d="M378.608 508.129C408.007 517.686 412.54 535.003 388.732 546.805C364.926 558.609 321.793 560.428 292.393 550.871C262.993 541.313 258.46 523.996 282.267 512.194C306.075 500.392 349.206 498.571 378.606 508.129H378.608Z" fill="url(#paint6_radial_2252_1897)"/>
<path opacity="0.2" d="M335.464 531C321.402 531 308.137 529.099 297.101 525.502C281.593 520.448 272.691 512.644 272.035 503.526C271.713 499.037 273.329 490.432 287.778 483.252C299.611 477.373 317.017 474 335.534 474C349.597 474 362.863 475.901 373.899 479.498C389.407 484.552 398.307 492.356 398.965 501.474C399.287 505.963 397.671 514.568 383.22 521.748C371.387 527.627 353.982 531 335.464 531Z" fill="#05990B"/>
<path d="M373.129 484.237C398.452 492.404 402.356 507.202 381.849 517.288C361.343 527.374 324.192 528.93 298.871 520.763C273.549 512.596 269.645 497.798 290.149 487.712C310.655 477.626 347.806 476.07 373.129 484.237Z" fill="#05990B"/>
<path d="M365.577 488.123C385.748 494.552 388.86 506.202 372.525 514.142C356.19 522.082 326.596 523.306 306.423 516.877C286.251 510.448 283.141 498.798 299.475 490.858C315.81 482.918 345.404 481.694 365.577 488.123Z" fill="url(#paint7_radial_2252_1897)"/>
<path d="M365.577 488.123C385.748 494.552 388.86 506.202 372.525 514.142C356.19 522.082 326.596 523.306 306.423 516.877C286.251 510.448 283.141 498.798 299.475 490.858C315.81 482.918 345.404 481.694 365.577 488.123Z" fill="url(#paint8_radial_2252_1897)"/>
<path d="M365.577 488.123C385.748 494.552 388.86 506.202 372.525 514.142C356.19 522.082 326.596 523.306 306.423 516.877C286.251 510.448 283.141 498.798 299.475 490.858C315.81 482.918 345.404 481.694 365.577 488.123Z" fill="url(#paint9_radial_2252_1897)"/>
<path opacity="0.2" d="M335.464 540C321.402 540 308.137 538.132 297.101 534.599C281.593 529.634 272.691 521.966 272.035 513.008C271.713 508.598 273.329 500.144 287.778 493.089C299.611 487.314 317.017 484 335.534 484C349.597 484 362.863 485.868 373.899 489.401C389.407 494.366 398.307 502.034 398.965 510.992C399.287 515.402 397.671 523.856 383.22 530.911C371.387 536.686 353.982 540 335.464 540Z" fill="#05990B"/>
<path d="M378 485.641H369.683C367.634 484.562 365.214 483.565 362.429 482.678C344.401 476.943 317.951 478.035 303.352 485.117C302.998 485.29 302.661 485.465 302.327 485.641H294.072V494.521C293.308 499.65 298.621 504.843 309.559 508.322C327.588 514.057 354.038 512.965 368.637 505.883C374.941 502.826 377.998 499.149 377.992 495.499H378V485.639V485.641Z" fill="#E2EEEB"/>
<path d="M362.431 472.677C380.457 478.412 383.236 488.802 368.639 495.883C354.042 502.965 327.596 504.057 309.569 498.323C291.543 492.588 288.764 482.198 303.361 475.117C317.958 468.035 344.404 466.943 362.431 472.677Z" fill="#F4FFFC"/>
<path d="M336 502C359.196 502 378 494.613 378 485.5C378 476.387 359.196 469 336 469C312.804 469 294 476.387 294 485.5C294 494.613 312.804 502 336 502Z" fill="url(#paint10_radial_2252_1897)"/>
<path d="M378 468.842H369.683C367.634 467.73 365.214 466.704 362.429 465.789C344.401 459.88 317.951 461.006 303.352 468.303C302.998 468.481 302.661 468.66 302.327 468.842H294.072V477.992C293.308 483.276 298.621 488.626 309.559 492.211C327.588 498.12 354.038 496.994 368.637 489.697C374.941 486.548 377.998 482.76 377.992 478.999H378V468.84V468.842Z" fill="#E2EEEB"/>
<path d="M362.431 455.788C380.457 461.697 383.236 472.402 368.639 479.698C354.042 486.994 327.596 488.119 309.569 482.212C291.543 476.303 288.764 465.598 303.361 458.302C317.958 451.006 344.404 449.881 362.431 455.788Z" fill="#F4FFFC"/>
<path opacity="0.25" d="M335.5 478C347.374 478 357 473.971 357 469C357 464.029 347.374 460 335.5 460C323.626 460 314 464.029 314 469C314 473.971 323.626 478 335.5 478Z" fill="url(#paint11_radial_2252_1897)"/>
<path d="M378.608 180.017C408.007 189.401 412.54 206.403 388.732 217.991C364.926 229.58 321.793 231.366 292.393 221.982C262.993 212.599 258.46 195.596 282.267 184.009C306.075 172.421 349.206 170.634 378.606 180.017H378.608Z" fill="url(#paint12_radial_2252_1897)"/>
<path opacity="0.2" d="M335.965 201C321.792 201 308.421 199.132 297.298 195.599C281.669 190.634 272.698 182.966 272.036 174.008C271.711 169.598 273.34 161.144 287.902 154.089C299.828 148.314 317.37 145 336.035 145C350.208 145 363.577 146.868 374.702 150.401C390.331 155.366 399.302 163.034 399.964 171.992C400.289 176.402 398.66 184.856 384.096 191.911C372.17 197.686 354.628 201 335.965 201Z" fill="#DB00FF"/>
<path d="M372.314 154.349C397.422 162.689 401.293 177.802 380.961 188.103C360.628 198.404 323.792 199.992 298.686 191.651C273.578 183.311 269.707 168.198 290.038 157.897C310.37 147.596 347.206 146.008 372.314 154.349Z" fill="#DB00FF"/>
<path d="M365.392 159.012C385.777 165.267 388.922 176.602 372.414 184.327C355.905 192.053 325.996 193.244 305.609 186.988C285.221 180.733 282.078 169.398 298.587 161.673C315.096 153.947 345.005 152.756 365.392 159.012Z" fill="url(#paint13_radial_2252_1897)"/>
<path d="M365.392 159.012C385.777 165.267 388.922 176.602 372.414 184.327C355.905 192.053 325.996 193.244 305.609 186.988C285.221 180.733 282.078 169.398 298.587 161.673C315.096 153.947 345.005 152.756 365.392 159.012Z" fill="url(#paint14_radial_2252_1897)"/>
<path d="M365.392 159.012C385.777 165.267 388.922 176.602 372.414 184.327C355.905 192.053 325.996 193.244 305.609 186.988C285.221 180.733 282.078 169.398 298.587 161.673C315.096 153.947 345.005 152.756 365.392 159.012Z" fill="url(#paint15_radial_2252_1897)"/>
<path opacity="0.2" d="M335.965 211C321.792 211 308.421 209.132 297.298 205.599C281.669 200.634 272.698 192.966 272.036 184.008C271.711 179.598 273.34 171.144 287.902 164.089C299.828 158.314 317.37 155 336.035 155C350.208 155 363.577 156.868 374.702 160.401C390.331 165.366 399.302 173.034 399.964 181.992C400.289 186.402 398.66 194.856 384.096 201.911C372.17 207.686 354.628 211 335.965 211Z" fill="#DB00FF"/>
<path d="M378 155.641H369.683C367.634 154.562 365.214 153.564 362.429 152.678C344.401 146.943 317.951 148.035 303.352 155.117C302.998 155.29 302.661 155.465 302.327 155.641H294.072V164.521C293.308 169.65 298.621 174.843 309.559 178.322C327.588 184.057 354.038 182.965 368.637 175.883C374.941 172.826 377.998 169.149 377.992 165.499H378V155.639V155.641Z" fill="#E3EDEB"/>
<path d="M362.431 143.677C380.457 149.412 383.236 159.802 368.639 166.883C354.042 173.965 327.596 175.057 309.569 169.323C291.543 163.588 288.764 153.198 303.361 146.117C317.958 139.035 344.404 137.943 362.431 143.677Z" fill="#F7FFFD"/>
<path d="M336 173C359.196 173 378 165.613 378 156.5C378 147.387 359.196 140 336 140C312.804 140 294 147.387 294 156.5C294 165.613 312.804 173 336 173Z" fill="url(#paint16_radial_2252_1897)"/>
<path d="M378 140.44H369.683C367.634 139.393 365.214 138.425 362.429 137.566C344.401 132.005 317.951 133.064 303.352 139.932C302.998 140.099 302.661 140.269 302.327 140.44H294.072V149.051C293.308 154.024 298.621 159.06 309.559 162.434C327.588 167.995 354.038 166.936 368.637 160.068C374.941 157.104 377.998 153.539 377.992 149.999H378V140.438V140.44Z" fill="#E3EDEB"/>
<path d="M362.431 126.788C380.457 132.697 383.236 143.402 368.639 150.698C354.042 157.994 327.596 159.119 309.569 153.212C291.543 147.303 288.764 136.598 303.361 129.302C317.958 122.006 344.404 120.881 362.431 126.788Z" fill="#F7FFFD"/>
<path opacity="0.25" d="M336 148C347.598 148 357 144.194 357 139.5C357 134.806 347.598 131 336 131C324.402 131 315 134.806 315 139.5C315 144.194 324.402 148 336 148Z" fill="url(#paint17_radial_2252_1897)"/>
<defs>
<radialGradient id="paint0_radial_2252_1897" cx="0" cy="0" r="1" gradientUnits="userSpaceOnUse" gradientTransform="translate(335.499 369.242) scale(66.7012 26.2292)">
<stop stop-color="#05990B"/>
<stop offset="1" stop-color="white"/>
</radialGradient>
<radialGradient id="paint1_radial_2252_1897" cx="0" cy="0" r="1" gradientUnits="userSpaceOnUse" gradientTransform="translate(793.172 198.155) scale(47.0019 46.4636)">
<stop stop-color="#00E3C7"/>
<stop offset="0.38" stop-color="#02E3C7" stop-opacity="0.99"/>
<stop offset="0.52" stop-color="#09E4C9" stop-opacity="0.96"/>
<stop offset="0.62" stop-color="#17E5CC" stop-opacity="0.91"/>
<stop offset="0.7" stop-color="#2AE7D0" stop-opacity="0.84"/>
<stop offset="0.76" stop-color="#42EAD5" stop-opacity="0.74"/>
<stop offset="0.82" stop-color="#61EDDC" stop-opacity="0.62"/>
<stop offset="0.88" stop-color="#85F1E4" stop-opacity="0.48"/>
<stop offset="0.93" stop-color="#B0F6ED" stop-opacity="0.31"/>
<stop offset="0.97" stop-color="#DEFBF7" stop-opacity="0.13"/>
<stop offset="1" stop-color="white" stop-opacity="0"/>
</radialGradient>
<radialGradient id="paint2_radial_2252_1897" cx="0" cy="0" r="1" gradientUnits="userSpaceOnUse" gradientTransform="translate(793.172 198.155) scale(47.0019 46.4636)">
<stop stop-color="#00E3C7"/>
<stop offset="0.38" stop-color="#02E3C7" stop-opacity="0.99"/>
<stop offset="0.52" stop-color="#09E4C9" stop-opacity="0.96"/>
<stop offset="0.62" stop-color="#17E5CC" stop-opacity="0.91"/>
<stop offset="0.7" stop-color="#2AE7D0" stop-opacity="0.84"/>
<stop offset="0.76" stop-color="#42EAD5" stop-opacity="0.74"/>
<stop offset="0.82" stop-color="#61EDDC" stop-opacity="0.62"/>
<stop offset="0.88" stop-color="#85F1E4" stop-opacity="0.48"/>
<stop offset="0.93" stop-color="#B0F6ED" stop-opacity="0.31"/>
<stop offset="0.97" stop-color="#DEFBF7" stop-opacity="0.13"/>
<stop offset="1" stop-color="white" stop-opacity="0"/>
</radialGradient>
<radialGradient id="paint3_radial_2252_1897" cx="0" cy="0" r="1" gradientUnits="userSpaceOnUse" gradientTransform="translate(793.172 198.155) scale(47.0019 46.4636)">
<stop stop-color="#00E3C7"/>
<stop offset="0.38" stop-color="#02E3C7" stop-opacity="0.99"/>
<stop offset="0.52" stop-color="#09E4C9" stop-opacity="0.96"/>
<stop offset="0.62" stop-color="#17E5CC" stop-opacity="0.91"/>
<stop offset="0.7" stop-color="#2AE7D0" stop-opacity="0.84"/>
<stop offset="0.76" stop-color="#42EAD5" stop-opacity="0.74"/>
<stop offset="0.82" stop-color="#61EDDC" stop-opacity="0.62"/>
<stop offset="0.88" stop-color="#85F1E4" stop-opacity="0.48"/>
<stop offset="0.93" stop-color="#B0F6ED" stop-opacity="0.31"/>
<stop offset="0.97" stop-color="#DEFBF7" stop-opacity="0.13"/>
<stop offset="1" stop-color="white" stop-opacity="0"/>
</radialGradient>
<radialGradient id="paint4_radial_2252_1897" cx="0" cy="0" r="1" gradientUnits="userSpaceOnUse" gradientTransform="translate(336 325.544) scale(41.8746 15.2411)">
<stop stop-color="#05990B"/>
<stop offset="1" stop-color="white"/>
</radialGradient>
<radialGradient id="paint5_radial_2252_1897" cx="0" cy="0" r="1" gradientUnits="userSpaceOnUse" gradientTransform="translate(335.5 309.036) scale(21.4362 8.31408)">
<stop stop-color="#05990B"/>
<stop offset="1" stop-color="white"/>
</radialGradient>
<radialGradient id="paint6_radial_2252_1897" cx="0" cy="0" r="1" gradientUnits="userSpaceOnUse" gradientTransform="translate(335.499 529.242) scale(66.7012 26.2292)">
<stop stop-color="#05990B"/>
<stop offset="1" stop-color="white"/>
</radialGradient>
<radialGradient id="paint7_radial_2252_1897" cx="0" cy="0" r="1" gradientUnits="userSpaceOnUse" gradientTransform="translate(793.172 358.155) scale(47.0019 46.4636)">
<stop stop-color="#00E3C7"/>
<stop offset="0.38" stop-color="#02E3C7" stop-opacity="0.99"/>
<stop offset="0.52" stop-color="#09E4C9" stop-opacity="0.96"/>
<stop offset="0.62" stop-color="#17E5CC" stop-opacity="0.91"/>
<stop offset="0.7" stop-color="#2AE7D0" stop-opacity="0.84"/>
<stop offset="0.76" stop-color="#42EAD5" stop-opacity="0.74"/>
<stop offset="0.82" stop-color="#61EDDC" stop-opacity="0.62"/>
<stop offset="0.88" stop-color="#85F1E4" stop-opacity="0.48"/>
<stop offset="0.93" stop-color="#B0F6ED" stop-opacity="0.31"/>
<stop offset="0.97" stop-color="#DEFBF7" stop-opacity="0.13"/>
<stop offset="1" stop-color="white" stop-opacity="0"/>
</radialGradient>
<radialGradient id="paint8_radial_2252_1897" cx="0" cy="0" r="1" gradientUnits="userSpaceOnUse" gradientTransform="translate(793.172 358.155) scale(47.0019 46.4636)">
<stop stop-color="#00E3C7"/>
<stop offset="0.38" stop-color="#02E3C7" stop-opacity="0.99"/>
<stop offset="0.52" stop-color="#09E4C9" stop-opacity="0.96"/>
<stop offset="0.62" stop-color="#17E5CC" stop-opacity="0.91"/>
<stop offset="0.7" stop-color="#2AE7D0" stop-opacity="0.84"/>
<stop offset="0.76" stop-color="#42EAD5" stop-opacity="0.74"/>
<stop offset="0.82" stop-color="#61EDDC" stop-opacity="0.62"/>
<stop offset="0.88" stop-color="#85F1E4" stop-opacity="0.48"/>
<stop offset="0.93" stop-color="#B0F6ED" stop-opacity="0.31"/>
<stop offset="0.97" stop-color="#DEFBF7" stop-opacity="0.13"/>
<stop offset="1" stop-color="white" stop-opacity="0"/>
</radialGradient>
<radialGradient id="paint9_radial_2252_1897" cx="0" cy="0" r="1" gradientUnits="userSpaceOnUse" gradientTransform="translate(793.172 358.155) scale(47.0019 46.4636)">
<stop stop-color="#00E3C7"/>
<stop offset="0.38" stop-color="#02E3C7" stop-opacity="0.99"/>
<stop offset="0.52" stop-color="#09E4C9" stop-opacity="0.96"/>
<stop offset="0.62" stop-color="#17E5CC" stop-opacity="0.91"/>
<stop offset="0.7" stop-color="#2AE7D0" stop-opacity="0.84"/>
<stop offset="0.76" stop-color="#42EAD5" stop-opacity="0.74"/>
<stop offset="0.82" stop-color="#61EDDC" stop-opacity="0.62"/>
<stop offset="0.88" stop-color="#85F1E4" stop-opacity="0.48"/>
<stop offset="0.93" stop-color="#B0F6ED" stop-opacity="0.31"/>
<stop offset="0.97" stop-color="#DEFBF7" stop-opacity="0.13"/>
<stop offset="1" stop-color="white" stop-opacity="0"/>
</radialGradient>
<radialGradient id="paint10_radial_2252_1897" cx="0" cy="0" r="1" gradientUnits="userSpaceOnUse" gradientTransform="translate(336 485.544) scale(41.8746 15.2411)">
<stop stop-color="#05990B"/>
<stop offset="1" stop-color="white"/>
</radialGradient>
<radialGradient id="paint11_radial_2252_1897" cx="0" cy="0" r="1" gradientUnits="userSpaceOnUse" gradientTransform="translate(335.5 469.036) scale(21.4362 8.31408)">
<stop stop-color="#05990B"/>
<stop offset="1" stop-color="white"/>
</radialGradient>
<radialGradient id="paint12_radial_2252_1897" cx="0" cy="0" r="1" gradientUnits="userSpaceOnUse" gradientTransform="translate(335.499 200.481) scale(66.7012 25.7523)">
<stop stop-color="#DB00FF"/>
<stop offset="1" stop-color="white"/>
</radialGradient>
<radialGradient id="paint13_radial_2252_1897" cx="0" cy="0" r="1" gradientUnits="userSpaceOnUse" gradientTransform="translate(557.275 132.451) scale(47.5019 45.2078)">
<stop stop-color="#DB00FF"/>
<stop offset="0.38" stop-color="#DB00FF" stop-opacity="0.99"/>
<stop offset="0.52" stop-color="#DB00FF" stop-opacity="0.96"/>
<stop offset="0.62" stop-color="#DB00FF" stop-opacity="0.91"/>
<stop offset="0.7" stop-color="#DB00FF" stop-opacity="0.83"/>
<stop offset="0.77" stop-color="#DB00FF" stop-opacity="0.73"/>
<stop offset="0.83" stop-color="#DB00FF" stop-opacity="0.61"/>
<stop offset="0.88" stop-color="#DB00FF" stop-opacity="0.46"/>
<stop offset="0.93" stop-color="#DB00FF" stop-opacity="0.29"/>
<stop offset="0.98" stop-color="#EEFBFB" stop-opacity="0.1"/>
<stop offset="1" stop-color="white" stop-opacity="0"/>
</radialGradient>
<radialGradient id="paint14_radial_2252_1897" cx="0" cy="0" r="1" gradientUnits="userSpaceOnUse" gradientTransform="translate(557.275 132.451) scale(47.5019 45.2078)">
<stop stop-color="#DB00FF"/>
<stop offset="0.38" stop-color="#DB00FF" stop-opacity="0.99"/>
<stop offset="0.52" stop-color="#DB00FF" stop-opacity="0.96"/>
<stop offset="0.62" stop-color="#DB00FF" stop-opacity="0.91"/>
<stop offset="0.7" stop-color="#DB00FF" stop-opacity="0.84"/>
<stop offset="0.76" stop-color="#DB00FF" stop-opacity="0.74"/>
<stop offset="0.82" stop-color="#DB00FF" stop-opacity="0.62"/>
<stop offset="0.88" stop-color="#AD00FF" stop-opacity="0.48"/>
<stop offset="0.93" stop-color="#DB00FF" stop-opacity="0.31"/>
<stop offset="0.97" stop-color="#DEFBF7" stop-opacity="0.13"/>
<stop offset="1" stop-color="white" stop-opacity="0"/>
</radialGradient>
<radialGradient id="paint15_radial_2252_1897" cx="0" cy="0" r="1" gradientUnits="userSpaceOnUse" gradientTransform="translate(557.275 132.451) scale(47.5019 45.2078)">
<stop stop-color="#DB00FF"/>
<stop offset="0.38" stop-color="#DB00FF" stop-opacity="0.99"/>
<stop offset="0.52" stop-color="#DB00FF" stop-opacity="0.96"/>
<stop offset="0.62" stop-color="#DB00FF" stop-opacity="0.91"/>
<stop offset="0.7" stop-color="#DB00FF" stop-opacity="0.84"/>
<stop offset="0.76" stop-color="#DB00FF" stop-opacity="0.74"/>
<stop offset="0.82" stop-color="#DB00FF" stop-opacity="0.62"/>
<stop offset="0.88" stop-color="#AD00FF" stop-opacity="0.48"/>
<stop offset="0.93" stop-color="#DB00FF" stop-opacity="0.31"/>
<stop offset="0.97" stop-color="#DEFBF7" stop-opacity="0.13"/>
<stop offset="1" stop-color="white" stop-opacity="0"/>
</radialGradient>
<radialGradient id="paint16_radial_2252_1897" cx="0" cy="0" r="1" gradientUnits="userSpaceOnUse" gradientTransform="translate(336 156.614) scale(41.8726 15.2393)">
<stop stop-color="#AD00FF"/>
<stop offset="1" stop-color="white"/>
</radialGradient>
<radialGradient id="paint17_radial_2252_1897" cx="0" cy="0" r="1" gradientUnits="userSpaceOnUse" gradientTransform="translate(336 139.605) scale(20.9376 7.85218)">
<stop stop-color="#AD00FF"/>
<stop offset="1" stop-color="white"/>
</radialGradient>
</defs>
</svg>
